<?xml version="1.0" encoding="UTF-8"?>
<!-- Created with Inkscape (http://www.inkscape.org/) -->
<svg width="50mm" height="50mm" version="1.1" viewBox="0 0 50 50" xmlns="http://www.w3.org/2000/svg" xmlns:cc="http://creativecommons.org/ns#" xmlns:dc="http://purl.org/dc/elements/1.1/" xmlns:rdf="http://www.w3.org/1999/02/22-rdf-syntax-ns#">
 <metadata>
  <rdf:RDF>
   <cc:Work rdf:about="">
    <dc:format>image/svg+xml</dc:format>
    <dc:type rdf:resource="http://purl.org/dc/dcmitype/StillImage"/>
    <dc:title/>
   </cc:Work>
  </rdf:RDF>
 </metadata>
 <g transform="translate(-15.875 -17.298)">
  <g>
   <rect x="15.875" y="17.298" width="50" height="50" ry="0"/>
   <rect x="17.875" y="19.298" width="46" height="46" ry="0" fill="#fff"/>
   <g stroke-width=".26458" aria-label="OP CYL">
    <path d="m35.676 40.012q-2.0574 0-3.1496-1.1684t-1.0922-3.302v-9.3472q0-2.1336 1.0922-3.302t3.1496-1.1684 3.1496 1.1684 1.0922 3.302v9.3472q0 2.1336-1.0922 3.302t-3.1496 1.1684zm0-2.54q1.4478 0 1.4478-1.7526v-9.7028q0-1.7526-1.4478-1.7526t-1.4478 1.7526v9.7028q0 1.7526 1.4478 1.7526z"/>
    <path d="m41.807 21.978h4.1148q2.0828 0 3.1242 1.1176t1.0414 3.2766v1.7526q0 2.159-1.0414 3.2766t-3.1242 1.1176h-1.3208v7.239h-2.794zm4.1148 8.001q0.6858 0 1.016-0.381 0.3556-0.381 0.3556-1.2954v-2.1082q0-0.9144-0.3556-1.2954-0.3302-0.381-1.016-0.381h-1.3208v5.461z"/>
    <path d="m31.457 62.872q-2.0066 0-3.0734-1.143-1.0414-1.143-1.0414-3.2258v-9.5504q0-2.0828 1.0414-3.2258 1.0668-1.143 3.0734-1.143t3.048 1.143q1.0668 1.143 1.0668 3.2258v1.8796h-2.6416v-2.0574q0-1.651-1.397-1.651t-1.397 1.651v9.9314q0 1.6256 1.397 1.6256t1.397-1.6256v-2.7178h2.6416v2.5146q0 2.0828-1.0668 3.2258-1.0414 1.143-3.048 1.143z"/>
    <path d="m39.561 55.048-3.3782-10.211h2.9718l1.905 6.5278h0.0508l1.905-6.5278h2.7178l-3.3782 10.211v7.5692h-2.794z"/>
    <path d="m47.016 44.838h2.794v15.24h4.5974v2.54h-7.3914z"/>
   </g>
  </g>
 </g>
</svg>
